<svg xmlns="http://www.w3.org/2000/svg" xmlns:xlink="http://www.w3.org/1999/xlink" width="32" height="32" viewBox="0 0 32 32">
    <defs>
        <path id="prefix__a" d="M14.283 13.016L10.938 9.67c1.747-2.368 1.542-5.767-.585-7.894C9.207.631 7.684 0 6.064 0c-1.62 0-3.142.63-4.288 1.776C.631 2.922 0 4.445 0 6.064c0 1.62.63 3.143 1.776 4.289 1.146 1.145 2.669 1.776 4.289 1.776 1.31 0 2.567-.418 3.606-1.19l3.345 3.344c.169.17.394.262.633.262.24 0 .466-.093.633-.261.17-.17.263-.395.263-.634 0-.24-.093-.465-.262-.634zM6.091 1.464c1.236 0 2.399.482 3.274 1.356.872.872 1.353 2.035 1.353 3.272 0 1.238-.48 2.4-1.354 3.273-.874.874-2.036 1.355-3.273 1.355-1.236 0-2.399-.481-3.273-1.355-.875-.874-1.356-2.036-1.356-3.273 0-1.236.481-2.398 1.356-3.272.875-.874 2.037-1.356 3.273-1.356z"/>
    </defs>
    <g fill="none" fill-rule="evenodd" transform="translate(8.527 8.927)">
        <mask id="prefix__b" fill="#fff">
            <use xlink:href="#prefix__a"/>
        </mask>
        <use fill="#FFF" fill-rule="nonzero" xlink:href="#prefix__a"/>
        <g fill="#FFF" mask="url(#prefix__b)">
            <path d="M0 0H29.091V29.091H0z" transform="translate(-7.273 -7.273)"/>
        </g>
    </g>
</svg>
