<svg xmlns="http://www.w3.org/2000/svg" width="33" height="17" viewBox="0 0 33 17">
    <g fill="none" fill-rule="evenodd" opacity=".5">
        <g>
            <path d="M0 0.023L10.014 0.023 10.014 15.389 0 15.389z" transform="translate(0 .02)"/>
            <path fill="#FFF" d="M7.914 5.542c0 .068-.056.124-.125.124H6.13c-.29 0-.525.236-.525.527v5.233c0 .069-.055.124-.124.124H4.327c-.069 0-.124-.055-.124-.124V6.193c0-.291-.233-.527-.525-.527h-1.73c-.068 0-.124-.056-.124-.124V4.384c0-.068.056-.123.123-.123H7.79c.069 0 .126.055.125.123v1.158zM8.955.023H1.06C.477.023 0 .502 0 1.085v13.241c0 .585.477 1.063 1.06 1.063h7.895c.581 0 1.06-.478 1.06-1.063V1.085c0-.583-.479-1.062-1.06-1.062z" transform="translate(0 .02)"/>
        </g>
        <g>
            <path d="M0.002 0.023L10.016 0.023 10.016 15.389 0.002 15.389z" transform="translate(10.963 .02)"/>
            <path fill="#FFF" d="M7.243 11.425c0 .07-.053.125-.123.125H4.502c-1.105 0-1.583-.71-1.583-1.633V4.383c0-.067.055-.122.123-.122h1.154c.068 0 .123.055.123.122V9.47c0 .372.3.674.672.674h2.13c.069 0 .122.057.122.125v1.156zM8.957.023H1.062C.479.023.002.502.002 1.085v13.241c0 .585.477 1.063 1.06 1.063h7.895c.581 0 1.06-.478 1.06-1.063V1.085c0-.583-.479-1.062-1.06-1.062z" transform="translate(10.963 .02)"/>
        </g>
        <g>
            <path d="M0.006 0.023L10.021 0.023 10.021 15.389 0.006 15.389z" transform="translate(21.927 .02)"/>
            <path fill="#FFF" d="M6.8 6.216c-.4-.357-.927-.575-1.504-.575-1.247 0-2.26 1.013-2.26 2.265 0 1.25 1.013 2.266 2.26 2.266.577 0 1.105-.22 1.504-.578l-.001.003c.049-.048.131-.048.18 0l.816.818c.043.044.045.116.006.163-.653.618-1.536.998-2.505.998-2.022 0-3.66-1.644-3.66-3.67 0-2.029 1.638-3.673 3.66-3.673.97 0 1.85.38 2.505 1 .039.05.037.119-.006.164l-.817.82c-.048.047-.13.047-.18-.002l.002.001zM8.962.023H1.066C.483.023.006.502.006 1.085v13.241c0 .585.477 1.063 1.06 1.063h7.896c.58 0 1.059-.478 1.059-1.063V1.085c0-.583-.479-1.062-1.06-1.062z" transform="translate(21.927 .02)"/>
        </g>
    </g>
</svg>
